<svg width="15" height="11" viewBox="0 0 15 11" fill="none" xmlns="http://www.w3.org/2000/svg">
<path d="M14.2891 3.97266C14.3984 3.89062 14.5625 3.97266 14.5625 4.10938V9.6875C14.5625 10.4258 13.9609 11 13.25 11H1.875C1.13672 11 0.5625 10.4258 0.5625 9.6875V4.10938C0.5625 3.97266 0.699219 3.89062 0.808594 3.97266C1.4375 4.46484 2.23047 5.06641 5.01953 7.08984C5.59375 7.5 6.57812 8.40234 7.5625 8.40234C8.51953 8.40234 9.53125 7.5 10.0781 7.08984C12.8672 5.06641 13.6602 4.46484 14.2891 3.97266ZM7.5625 7.5C6.90625 7.52734 6.00391 6.70703 5.53906 6.37891C1.90234 3.75391 1.62891 3.50781 0.808594 2.85156C0.644531 2.74219 0.5625 2.55078 0.5625 2.33203V1.8125C0.5625 1.10156 1.13672 0.5 1.875 0.5H13.25C13.9609 0.5 14.5625 1.10156 14.5625 1.8125V2.33203C14.5625 2.55078 14.4531 2.74219 14.2891 2.85156C13.4688 3.50781 13.1953 3.75391 9.55859 6.37891C9.09375 6.70703 8.19141 7.52734 7.5625 7.5Z" fill="#E20935"/>
<style>
        path { fill: #000; }
        @media (prefers-color-scheme: dark) {
            path { fill: #FFF; }
        }
    </style>
</svg>
