<svg width="29" height="28" viewBox="0 0 29 28" fill="none" xmlns="http://www.w3.org/2000/svg">
<g clip-path="url(#clip0_484_429)">
<path d="M28.9805 14C28.9805 6.26806 22.7124 0 14.9805 0C7.24853 0 0.980469 6.26795 0.980469 14C0.980469 20.9877 6.10009 26.7797 12.793 27.8299V18.0469H9.23828V14H12.793V10.9156C12.793 7.40687 14.8831 5.46875 18.0809 5.46875C19.6127 5.46875 21.2148 5.74219 21.2148 5.74219V9.1875H19.4495C17.7103 9.1875 17.168 10.2667 17.168 11.3739V14H21.0508L20.4301 18.0469H17.168V27.8299C23.8608 26.7797 28.9805 20.9879 28.9805 14Z" fill="#1877F2"/>
<path d="M20.4301 18.0469L21.0508 14H17.168V11.3739C17.168 10.2666 17.7104 9.1875 19.4495 9.1875H21.2148V5.74219C21.2148 5.74219 19.6127 5.46875 18.0809 5.46875C14.8831 5.46875 12.793 7.40688 12.793 10.9156V14H9.23828V18.0469H12.793V27.8299C13.5166 27.9433 14.248 28.0002 14.9805 28C15.7129 28.0002 16.4443 27.9434 17.168 27.8299V18.0469H20.4301Z" fill="white"/>
</g>
<defs>
<clipPath id="clip0_484_429">
<rect width="28" height="28" fill="white" transform="translate(0.980469)"/>
</clipPath>
</defs>
</svg>
