<svg width="29" height="28" viewBox="0 0 29 28" fill="none" xmlns="http://www.w3.org/2000/svg">
<path d="M22.418 0H7.54297C3.9186 0 0.980469 2.93813 0.980469 6.5625V21.4375C0.980469 25.0619 3.9186 28 7.54297 28H22.418C26.0423 28 28.9805 25.0619 28.9805 21.4375V6.5625C28.9805 2.93813 26.0423 0 22.418 0Z" fill="url(#paint0_radial_484_424)"/>
<path d="M22.418 0H7.54297C3.9186 0 0.980469 2.93813 0.980469 6.5625V21.4375C0.980469 25.0619 3.9186 28 7.54297 28H22.418C26.0423 28 28.9805 25.0619 28.9805 21.4375V6.5625C28.9805 2.93813 26.0423 0 22.418 0Z" fill="url(#paint1_radial_484_424)"/>
<path d="M14.9815 3.0625C12.011 3.0625 11.6382 3.07552 10.4716 3.12856C9.30719 3.18194 8.51236 3.36623 7.81695 3.63672C7.09748 3.91606 6.48728 4.2898 5.87938 4.89792C5.27092 5.50594 4.89719 6.11614 4.61697 6.83528C4.34572 7.53091 4.1612 8.32606 4.10881 9.48992C4.05664 10.6566 4.04297 11.0296 4.04297 14.0001C4.04297 16.9706 4.05609 17.3423 4.10903 18.5089C4.16263 19.6733 4.34692 20.4681 4.61719 21.1635C4.89675 21.883 5.27048 22.4932 5.87861 23.1011C6.48641 23.7095 7.09661 24.0842 7.81553 24.3635C8.51148 24.634 9.30642 24.8183 10.4706 24.8717C11.6373 24.9247 12.0098 24.9377 14.9801 24.9377C17.9509 24.9377 18.3225 24.9247 19.4891 24.8717C20.6535 24.8183 21.4492 24.634 22.1452 24.3635C22.8643 24.0842 23.4737 23.7095 24.0813 23.1011C24.6898 22.4932 25.0634 21.883 25.3438 21.1638C25.6126 20.4681 25.7972 19.6731 25.8519 18.5091C25.9043 17.3425 25.918 16.9706 25.918 14.0001C25.918 11.0296 25.9043 10.6568 25.8519 9.49014C25.7972 8.32573 25.6126 7.53102 25.3438 6.83561C25.0634 6.11614 24.6898 5.50594 24.0813 4.89792C23.473 4.28958 22.8645 3.91584 22.1445 3.63683C21.4473 3.36623 20.652 3.18183 19.4876 3.12856C18.3209 3.07552 17.9495 3.0625 14.9781 3.0625H14.9815ZM14.0002 5.03355C14.2915 5.03311 14.6165 5.03355 14.9815 5.03355C17.9019 5.03355 18.2479 5.04405 19.4012 5.09644C20.4676 5.14522 21.0464 5.32339 21.432 5.47312C21.9424 5.67131 22.3063 5.90833 22.6889 6.29125C23.0717 6.67406 23.3086 7.03861 23.5073 7.54906C23.6571 7.93406 23.8355 8.51287 23.884 9.57928C23.9364 10.7323 23.9478 11.0786 23.9478 13.9976C23.9478 16.9166 23.9364 17.263 23.884 18.4159C23.8353 19.4823 23.6571 20.0611 23.5073 20.4462C23.3092 20.9567 23.0717 21.3201 22.6889 21.7027C22.3061 22.0855 21.9426 22.3225 21.432 22.5208C21.0468 22.6711 20.4676 22.8489 19.4012 22.8977C18.2482 22.95 17.9019 22.9614 14.9815 22.9614C12.0609 22.9614 11.7147 22.95 10.5618 22.8977C9.49542 22.8484 8.91661 22.6703 8.53073 22.5205C8.02039 22.3222 7.65573 22.0853 7.27292 21.7025C6.89011 21.3197 6.6532 20.956 6.45447 20.4454C6.30473 20.0602 6.12634 19.4814 6.07778 18.415C6.02539 17.262 6.01489 16.9157 6.01489 13.9949C6.01489 11.0741 6.02539 10.7296 6.07778 9.57655C6.12656 8.51014 6.30473 7.93133 6.45447 7.54578C6.65277 7.03533 6.89011 6.67078 7.27303 6.28797C7.65584 5.90516 8.02039 5.66814 8.53084 5.46952C8.91639 5.31912 9.49542 5.14139 10.5618 5.09239C11.5708 5.04678 11.9618 5.03311 14.0002 5.03081V5.03355ZM20.8199 6.84961C20.0953 6.84961 19.5074 7.43695 19.5074 8.16167C19.5074 8.88628 20.0953 9.47417 20.8199 9.47417C21.5445 9.47417 22.1324 8.88628 22.1324 8.16167C22.1324 7.43706 21.5445 6.84917 20.8199 6.84917V6.84961ZM14.9815 8.38316C11.8796 8.38316 9.36461 10.8981 9.36461 14.0001C9.36461 17.1021 11.8796 19.6159 14.9815 19.6159C18.0834 19.6159 20.5975 17.1021 20.5975 14.0001C20.5975 10.8982 18.0832 8.38316 14.9812 8.38316H14.9815ZM14.9815 10.3542C16.9949 10.3542 18.6274 11.9864 18.6274 14.0001C18.6274 16.0136 16.9949 17.646 14.9815 17.646C12.9679 17.646 11.3357 16.0136 11.3357 14.0001C11.3357 11.9864 12.9679 10.3542 14.9815 10.3542Z" fill="white"/>
<defs>
<radialGradient id="paint0_radial_484_424" cx="0" cy="0" r="1" gradientUnits="userSpaceOnUse" gradientTransform="translate(8.41797 30.1565) rotate(-90) scale(27.7501 25.8098)">
<stop stop-color="#FFDD55"/>
<stop offset="0.1" stop-color="#FFDD55"/>
<stop offset="0.5" stop-color="#FF543E"/>
<stop offset="1" stop-color="#C837AB"/>
</radialGradient>
<radialGradient id="paint1_radial_484_424" cx="0" cy="0" r="1" gradientUnits="userSpaceOnUse" gradientTransform="translate(-3.70964 2.01698) rotate(78.681) scale(12.4044 51.1315)">
<stop stop-color="#3771C8"/>
<stop offset="0.128" stop-color="#3771C8"/>
<stop offset="1" stop-color="#6600FF" stop-opacity="0"/>
</radialGradient>
</defs>
</svg>
