<svg width="29" height="28" viewBox="0 0 29 28" fill="none" xmlns="http://www.w3.org/2000/svg">
<g clip-path="url(#clip0_587_854)">
<path d="M21.9023 0H7.02734C3.40298 0 0.464844 2.93813 0.464844 6.5625V21.4375C0.464844 25.0619 3.40298 28 7.02734 28H21.9023C25.5267 28 28.4648 25.0619 28.4648 21.4375V6.5625C28.4648 2.93813 25.5267 0 21.9023 0Z" fill="white"/>
<path d="M21.9023 0H7.02734C3.40298 0 0.464844 2.93813 0.464844 6.5625V21.4375C0.464844 25.0619 3.40298 28 7.02734 28H21.9023C25.5267 28 28.4648 25.0619 28.4648 21.4375V6.5625C28.4648 2.93813 25.5267 0 21.9023 0Z" fill="#0A66C2"/>
<path d="M20.668 23.8093H23.8695C23.9855 23.8093 24.0967 23.7632 24.1788 23.6812C24.2608 23.5992 24.3069 23.4879 24.307 23.3719L24.3086 16.6079C24.3086 13.0726 23.5468 10.3552 19.4154 10.3552C17.8449 10.2968 16.3638 11.1064 15.5646 12.4582C15.5607 12.4648 15.5548 12.4699 15.5477 12.4728C15.5406 12.4757 15.5328 12.4761 15.5254 12.4741C15.518 12.4721 15.5115 12.4678 15.5068 12.4617C15.5022 12.4557 15.4996 12.4483 15.4995 12.4406V11.1191C15.4995 11.003 15.4534 10.8917 15.3714 10.8097C15.2893 10.7277 15.1781 10.6816 15.062 10.6816H12.0239C11.9079 10.6816 11.7966 10.7277 11.7146 10.8097C11.6325 10.8917 11.5864 11.003 11.5864 11.1191V23.3712C11.5864 23.4873 11.6325 23.5986 11.7146 23.6806C11.7966 23.7627 11.9079 23.8087 12.0239 23.8087H15.2251C15.3411 23.8087 15.4524 23.7627 15.5345 23.6806C15.6165 23.5986 15.6626 23.4873 15.6626 23.3712V17.3148C15.6626 15.6023 15.9875 13.9439 18.1105 13.9439C20.2034 13.9439 20.2305 15.9035 20.2305 17.4257V23.3718C20.2305 23.4878 20.2766 23.5991 20.3587 23.6812C20.4407 23.7632 20.552 23.8093 20.668 23.8093ZM4.62109 6.5217C4.62109 7.81944 5.68936 8.88716 6.98709 8.88716C8.2845 8.88705 9.35211 7.81867 9.35211 6.52127C9.35189 5.22386 8.28417 4.15625 6.98666 4.15625C5.68881 4.15625 4.62109 5.22408 4.62109 6.5217ZM5.38223 23.8093H8.58769C8.70372 23.8093 8.815 23.7632 8.89705 23.6812C8.97909 23.5991 9.02519 23.4878 9.02519 23.3718V11.1191C9.02519 11.003 8.97909 10.8917 8.89705 10.8097C8.815 10.7277 8.70372 10.6816 8.58769 10.6816H5.38223C5.2662 10.6816 5.15492 10.7277 5.07288 10.8097C4.99083 10.8917 4.94473 11.003 4.94473 11.1191V23.3718C4.94473 23.4878 4.99083 23.5991 5.07288 23.6812C5.15492 23.7632 5.2662 23.8093 5.38223 23.8093Z" fill="white"/>
</g>
<defs>
<clipPath id="clip0_587_854">
<rect width="28" height="28" fill="white" transform="translate(0.464844)"/>
</clipPath>
</defs>
</svg>
