<svg width="29" height="28" viewBox="0 0 29 28" fill="none" xmlns="http://www.w3.org/2000/svg">
<g clip-path="url(#clip0_587_859)">
<path d="M1.0571 13.8324C1.05644 16.185 1.67114 18.4821 2.83998 20.5067L0.945312 27.4245L8.02475 25.5682C9.98283 26.6342 12.1767 27.1927 14.4061 27.1929H14.412C21.7718 27.1929 27.7628 21.204 27.7659 13.843C27.7674 10.276 26.3795 6.92185 23.858 4.39838C21.3369 1.87512 17.984 0.484782 14.4115 0.483154C7.05083 0.483154 1.06024 6.47168 1.0572 13.8324" fill="url(#paint0_linear_587_859)"/>
<path d="M0.580968 13.8281C0.580208 16.2653 1.21694 18.6445 2.42745 20.7417L0.464844 27.9074L7.79813 25.9847C9.81869 27.0863 12.0936 27.6671 14.4085 27.668H14.4145C22.0383 27.668 28.2445 21.4637 28.2478 13.8392C28.2491 10.144 26.8113 6.66932 24.1997 4.05544C21.5878 1.44189 18.1149 0.00151938 14.4145 0C6.78937 0 0.584007 6.20341 0.580968 13.8281ZM4.9481 20.3805L4.67429 19.9459C3.52325 18.1157 2.91571 16.0007 2.91658 13.829C2.91908 7.49152 8.07672 2.3355 14.4188 2.3355C17.4901 2.33681 20.3765 3.53408 22.5475 5.70636C24.7184 7.87885 25.9129 10.7668 25.9122 13.8383C25.9094 20.1757 20.7516 25.3324 14.4145 25.3324H14.4099C12.3465 25.3313 10.3228 24.7772 8.55793 23.73L8.13793 23.4809L3.78621 24.6219L4.9481 20.3804V20.3805Z" fill="url(#paint1_linear_587_859)"/>
<path d="M10.9583 8.04716C10.6994 7.47164 10.4269 7.46003 10.1806 7.44994C9.979 7.44125 9.74849 7.44191 9.51819 7.44191C9.28768 7.44191 8.91315 7.52862 8.59658 7.87428C8.27968 8.22026 7.38672 9.05636 7.38672 10.7569C7.38672 12.4575 8.62534 14.1009 8.79801 14.3318C8.97089 14.5622 11.1892 18.1635 14.7024 19.549C17.6222 20.7003 18.2164 20.4713 18.8501 20.4136C19.4839 20.3561 20.8952 19.5777 21.1831 18.7706C21.4713 17.9636 21.4713 17.2719 21.3849 17.1273C21.2985 16.9833 21.068 16.8968 20.7223 16.724C20.3765 16.5511 18.6772 15.7149 18.3604 15.5996C18.0435 15.4843 17.8131 15.4268 17.5826 15.7729C17.3521 16.1184 16.6902 16.8968 16.4885 17.1273C16.2869 17.3584 16.0852 17.3871 15.7396 17.2142C15.3937 17.0408 14.2806 16.6763 12.9599 15.4989C11.9324 14.5827 11.2387 13.4513 11.037 13.1052C10.8354 12.7596 11.0154 12.5723 11.1888 12.4001C11.3441 12.2452 11.5345 11.9965 11.7075 11.7947C11.8799 11.5929 11.9374 11.4488 12.0526 11.2183C12.168 10.9876 12.1103 10.7857 12.024 10.6129C11.9374 10.44 11.2657 8.73056 10.9583 8.04716Z" fill="white"/>
</g>
<defs>
<linearGradient id="paint0_linear_587_859" x1="1341.98" y1="2694.62" x2="1341.98" y2="0.483154" gradientUnits="userSpaceOnUse">
<stop stop-color="#1FAF38"/>
<stop offset="1" stop-color="#60D669"/>
</linearGradient>
<linearGradient id="paint1_linear_587_859" x1="1389.61" y1="2790.74" x2="1389.61" y2="0" gradientUnits="userSpaceOnUse">
<stop stop-color="#F9F9F9"/>
<stop offset="1" stop-color="white"/>
</linearGradient>
<clipPath id="clip0_587_859">
<rect width="27.7829" height="28" fill="white" transform="translate(0.464844)"/>
</clipPath>
</defs>
</svg>
