<svg width="40" height="28" viewBox="0 0 40 28" fill="none" xmlns="http://www.w3.org/2000/svg">
<path d="M39.098 4.38464C38.8687 3.53716 38.4214 2.76454 37.8006 2.14371C37.1798 1.52289 36.4072 1.07552 35.5597 0.846161C32.4571 0 19.9702 0 19.9702 0C19.9702 0 7.48273 0.0256128 4.38014 0.871774C3.53265 1.10115 2.76004 1.54854 2.13924 2.16939C1.51844 2.79025 1.07112 3.5629 0.841818 4.41041C-0.0966429 9.92311 -0.460689 18.3232 0.867587 23.6154C1.09691 24.4628 1.54424 25.2355 2.16504 25.8563C2.78584 26.4771 3.55844 26.9245 4.40591 27.1538C7.5085 28 19.9957 28 19.9957 28C19.9957 28 32.4827 28 35.5852 27.1538C36.4327 26.9245 37.2053 26.4771 37.8261 25.8563C38.447 25.2355 38.8943 24.4629 39.1237 23.6154C40.1135 18.0949 40.4185 9.69993 39.098 4.38464Z" fill="#FF0000"/>
<path d="M15.9961 19.9999L26.3549 14L15.9961 8V19.9999Z" fill="white"/>
</svg>
